#!OML:ASF I:\golf\golf\golf 2\Subject 1\2002-09-07\Subject1.ASF
:FULLY-SPECIFIED
:DEGREES
248
root -0.830325 16.7846 -4.0613 72.3564 27.8165 12.4248
lowerback 23.4976 3.69721 5.71139
upperback 14.0993 6.0751 8.28335
thorax 2.20038 3.01478 4.47901
lowerneck -10.8572 -9.29418 -1.69424
upperneck -1.53725 -12.3985 -0.239916
head 1.40375 -6.28971 -0.353028
rclavicle 2.54444e-014 -2.22639e-014
rhumerus 62.6095 -18.3017 -53.6478
rradius 21.2633
rwrist -1.70592
rhand -42.3565 22.8224
rfingers 7.12502
rthumb -15.2386 -6.59635
lclavicle 2.54444e-014 -2.22639e-014
lhumerus 1.28834 -56.0454 93.0994
lradius 87.6534
lwrist 97.8016
lhand 35.2868 73.277
lfingers 7.12502
lthumb 58.3868 -271.354
rfemur -103.827 -9.26422 23.8614
rtibia 46.2304
rfoot -4.67648 -4.54414
rtoes 20.6977
lfemur -70.4505 -3.4686 -6.55927
ltibia 30.436
lfoot -14.3106 -9.7627
ltoes -19.6704
249
root -0.852961 16.7756 -4.02514 72.5075 27.9048 12.1627
lowerback 23.7117 3.89083 5.57703
upperback 14.0712 6.3106 8.34857
thorax 2.03195 3.11367 4.55598
lowerneck -10.2968 -9.3169 -1.80987
upperneck -2.09861 -12.4447 0.104461
head 1.15524 -6.30804 -0.183492
rclavicle -6.99722e-014 1.59028e-014
rhumerus 62.9386 -18.5562 -54.0749
rradius 21.1744
rwrist -1.08742
rhand -42.5416 22.993
rfingers 7.12502
rthumb -15.4169 -6.41206
lclavicle -6.99722e-014 1.59028e-014
lhumerus 0.948736 -55.9551 93.3968
lradius 87.9249
lwrist 98.5782
lhand 34.1844 73.7531
lfingers 7.12502
lthumb 57.4245 -270.02
rfemur -104.164 -8.90496 24.2534
rtibia 46.4679
rfoot -4.66021 -4.47667
rtoes 20.0854
lfemur -70.5271 -2.97565 -6.45388
ltibia 30.3234
lfoot -14.2426 -9.92611
ltoes -20.0727
250
root -0.864018 16.7659 -3.99489 72.8702 27.9408 12.276
lowerback 23.8385 3.93081 5.54737
upperback 14.0197 6.36885 8.33683
thorax 1.90745 3.13842 4.53362
lowerneck -9.99206 -9.36508 -1.79477
upperneck -2.47242 -12.5293 0.268935
head 0.993051 -6.35034 -0.110496
rclavicle -4.77083e-014 -1.43125e-014
rhumerus 63.1194 -18.7307 -54.0764
rradius 21.1173
rwrist -0.891252
rhand -42.7722 23.5968
rfingers 7.12502
rthumb -15.639 -5.79112
lclavicle -4.77083e-014 -1.43125e-014
lhumerus 0.69483 -55.7797 93.5544
lradius 88.0617
lwrist 99.7953
lhand 32.4265 74.4869
lfingers 7.12502
lthumb 55.8742 -91.9737
rfemur -104.441 -8.83092 23.8859
rtibia 46.6749
rfoot -4.78449 -4.92657
rtoes 20.0436
lfemur -70.7415 -2.94518 -6.37938
ltibia 30.1821
lfoot -14.1033 -9.93487
ltoes -19.9525
251
root -0.870677 16.754 -3.96895 73.2932 27.9627 12.4534
lowerback 23.7695 3.9383 5.49684
upperback 14.0572 6.36023 8.32382
thorax 1.97892 3.13294 4.55686
lowerneck -9.97924 -9.40856 -1.73167
upperneck -2.66306 -12.603 0.315152
head 0.928731 -6.38963 -0.10168
rclavicle -1.27222e-014 -1.59028e-014
rhumerus 63.3165 -18.864 -53.7536
rradius 21.135
rwrist -0.955408
rhand -43.1351 24.0487
rfingers 7.12502
rthumb -15.9884 -5.31146
lclavicle -1.27222e-014 -1.59028e-014
lhumerus 0.788971 -55.7853 93.4557
lradius 88.0564
lwrist 100.195
lhand 31.4826 74.6383
lfingers 7.12502
lthumb 55.0347 -92.7519
rfemur -104.77 -8.84626 23.5706
rtibia 46.8491
rfoot -4.79657 -5.29374
rtoes 19.6739
lfemur -70.9977 -2.94611 -6.39407
ltibia 30.0113
lfoot -13.9993 -10.0434
ltoes -19.7737
252
root -0.878228 16.7419 -3.94481 73.6642 28.0828 12.5735
lowerback 23.712 3.92748 5.54461
upperback 14.1085 6.34671 8.31372
thorax 2.07239 3.13032 4.53081
lowerneck -10.0628 -9.40877 -1.64753
upperneck -2.76939 -12.6162 0.334306
head 0.90438 -6.39861 -0.109765
rclavicle -6.67916e-014 -4.92986e-014
rhumerus 63.5587 -19.0155 -53.5717
rradius 21.1589
rwrist -0.796109
rhand -43.5125 23.9488
rfingers 7.12502
rthumb -16.3518 -5.38184
lclavicle -6.67916e-014 -4.92986e-014
lhumerus 0.945737 -56.0498 93.2266
lradius 88.1817
lwrist 99.7565
lhand 31.6691 73.9628
lfingers 7.12502
lthumb 55.2009 -91.9552
rfemur -105.14 -8.88193 23.6883
rtibia 47.0399
rfoot -4.83084 -5.3767
rtoes 19.5642
lfemur -71.1978 -2.85111 -6.38061
ltibia 29.7813
lfoot -13.864 -10.2817
ltoes -19.5928
253
root -0.885742 16.7281 -3.92454 74.2235 28.3148 12.838
lowerback 23.4977 3.87756 5.69715
upperback 14.1181 6.29573 8.34046
thorax 2.2043 3.11532 4.50284
lowerneck -10.2068 -9.40665 -1.60684
upperneck -2.85399 -12.6199 0.336671
head 0.898745 -6.40271 -0.12007
rclavicle -7.31528e-014 3.18055e-014
rhumerus 63.7658 -19.255 -53.4668
rradius 21.1895
rwrist -0.631055
rhand -43.6658 24.067
rfingers 7.12502
rthumb -16.4994 -5.25141
lclavicle -7.31528e-014 3.18055e-014
lhumerus 1.12572 -56.2859 92.9939
lradius 88.2942
lwrist 99.683
lhand 31.5092 73.5445
lfingers 7.12502
lthumb 55.0585 -91.6409
rfemur -105.652 -9.05104 23.7731
rtibia 47.2507
rfoot -4.85132 -5.49621
rtoes 19.7071
lfemur -71.5943 -2.94925 -6.14556
ltibia 29.549
lfoot -13.6784 -10.3713
ltoes -19.556
254
root -0.891243 16.7139 -3.90539 74.8157 28.5157 13.1717
lowerback 23.2706 3.81809 5.82298
upperback 14.0891 6.23104 8.38741
thorax 2.29387 3.09138 4.51198
lowerneck -10.2369 -9.42421 -1.66625
upperneck -2.96647 -12.6408 0.36749
head 0.873509 -6.41381 -0.100622
rclavicle -5.725e-014 -5.08889e-014
rhumerus 63.9544 -19.5093 -53.4629
rradius 21.1734
rwrist -0.453868
rhand -43.6107 24.5553
rfingers 7.12502
rthumb -16.4464 -4.76759
lclavicle -5.725e-014 -5.08889e-014
lhumerus 1.10191 -56.437 92.9759
lradius 88.3934
lwrist 99.6496
lhand 31.2443 73.1738
lfingers 7.12502
lthumb 54.822 -91.4405
rfemur -106.166 -9.27174 23.7477
rtibia 47.4693
rfoot -5.04549 -5.72983
rtoes 20.4806
lfemur -72.025 -3.22171 -5.78216
ltibia 29.3402
lfoot -13.4502 -10.2881
ltoes -19.0815
255
root -0.895675 16.6994 -3.88556 75.2933 28.6416 13.517
lowerback 23.176 3.75083 5.91453
upperback 14.0528 6.16257 8.41498
thorax 2.3092 3.06365 4.5098
lowerneck -10.0909 -9.43011 -1.6767
upperneck -3.19311 -12.6569 0.374963
head 0.777359 -6.42338 -0.0813224
rclavicle -6.04305e-014 -1.74931e-014
rhumerus 64.2257 -19.7624 -53.721
rradius 21.0434
rwrist 0.11439
rhand -43.7496 24.9506
rfingers 7.12502
rthumb -16.5802 -4.36117
lclavicle -6.04305e-014 -1.74931e-014
lhumerus 0.915558 -56.5098 93.1354
lradius 88.3938
lwrist 99.7223
lhand 30.7253 73.0121
lfingers 7.12502
lthumb 54.3579 -91.6052
rfemur -106.561 -9.50556 23.7167
rtibia 47.6899
rfoot -5.61628 -5.93886
rtoes 21.6213
lfemur -72.3099 -3.46 -5.61276
ltibia 29.1356
lfoot -13.2491 -10.3126
ltoes -18.528
256
root -0.899811 16.6872 -3.86651 75.6285 28.8114 13.7317
lowerback 23.1779 3.71422 6.06097
upperback 14.0334 6.14822 8.45866
thorax 2.29982 3.0632 4.47858
lowerneck -10.0323 -9.42992 -1.58262
upperneck -3.33925 -12.6735 0.316773
head 0.710605 -6.43484 -0.104371
rclavicle 3.18055e-014 6.67916e-014
rhumerus 64.5187 -20.005 -54.0319
rradius 20.8501
rwrist 0.894072
rhand -44.244 25.4018
rfingers 7.12502
rthumb -17.056 -3.8695
lclavicle 3.18055e-014 6.67916e-014
lhumerus 0.777855 -56.7343 93.2685
lradius 88.4323
lwrist 99.3737
lhand 30.8214 72.3963
lfingers 7.12502
lthumb 54.4439 -90.9297
rfemur -106.865 -9.65836 23.855
rtibia 47.9028
rfoot -5.54325 -5.97446
rtoes 21.3324
lfemur -72.4896 -3.52645 -5.51343
ltibia 28.9483
lfoot -13.118 -10.4118
ltoes -18.5076
257
root -0.901565 16.6778 -3.84967 75.9596 28.9932 13.9318
lowerback 23.2577 3.62561 6.20589
upperback 13.9737 6.0806 8.48193
thorax 2.21075 3.03669 4.4287
lowerneck -10.0123 -9.43595 -1.56687
upperneck -3.37402 -12.6853 0.352861
head 0.697694 -6.44104 -0.0942038
rclavicle 3.18055e-014 -7.4743e-014
rhumerus 64.6943 -20.0393 -54.1609
rradius 20.7667
rwrist 1.42139
rhand -44.8016 25.8035
rfingers 7.12502
rthumb -17.5927 -3.42049
lclavicle 3.18055e-014 -7.4743e-014
lhumerus 0.560248 -56.7828 93.3741
lradius 88.4975
lwrist 99.1528
lhand 30.8558 71.9177
lfingers 7.12502
lthumb 54.4746 -90.4297
rfemur -107.172 -9.81801 24.0504
rtibia 48.1102
rfoot -5.47869 -5.98264
rtoes 21.0373
lfemur -72.6919 -3.58665 -5.41096
ltibia 28.7938
lfoot -12.9237 -10.5238
ltoes -18.2488
258
root -0.901575 16.6641 -3.83333 76.4744 29.0786 14.3062
lowerback 23.1702 3.49065 6.25152
upperback 13.899 5.92383 8.46513
thorax 2.1813 2.9655 4.41815
lowerneck -9.98992 -9.45452 -1.63015
upperneck -3.37813 -12.7042 0.437017
head 0.702703 -6.44905 -0.0595977
rclavicle 2.8625e-014 4.29375e-014
rhumerus 64.789 -20.0062 -54.117
rradius 20.8046
rwrist 1.61139
rhand -45.2125 26.1851
rfingers 7.12502
rthumb -17.9882 -3.00309
lclavicle 2.8625e-014 4.29375e-014
lhumerus 0.415525 -56.6221 93.3813
lradius 88.5058
lwrist 99.5642
lhand 30.0771 71.9514
lfingers 7.12502
lthumb 53.7763 -90.9396
rfemur -107.613 -10.1075 24.1443
rtibia 48.3038
rfoot -5.46641 -5.91416
rtoes 17.7769
lfemur -73.0297 -3.78507 -5.39359
ltibia 28.6514
lfoot -12.7269 -10.6759
ltoes -17.666
259
root -0.902553 16.6469 -3.81756 77.0386 29.1634 14.741
lowerback 22.867 3.40772 6.32563
upperback 13.9061 5.80728 8.45686
thorax 2.35038 2.91816 4.41279
lowerneck -10.1179 -9.50874 -1.56519
upperneck -3.32319 -12.7836 0.455027
head 0.738978 -6.49035 -0.0759573
rclavicle 5.40694e-014 1.59028e-015
rhumerus 64.891 -20.2053 -53.9922
rradius 20.8189
rwrist 1.65972
rhand -45.4558 26.4016
rfingers 7.12502
rthumb -18.2222 -2.76485
lclavicle 5.40694e-014 1.59028e-015
lhumerus 0.508302 -56.6266 93.2539
lradius 88.4749
lwrist 100.097
lhand 29.2079 72.0947
lfingers 7.12502
lthumb 52.9934 -91.5912
rfemur -108.071 -10.4303 24.1979
rtibia 48.4795
rfoot -5.52573 -5.87404
rtoes 14.1075
lfemur -73.3957 -3.98427 -5.4305
ltibia 28.5009
lfoot -12.5674 -10.9129
ltoes -16.8256
260
root -0.905056 16.636 -3.80208 77.4168 29.2821 14.9841
lowerback 22.663 3.38323 6.42928
upperback 13.9613 5.77135 8.45643
thorax 2.52581 2.91003 4.38044
lowerneck -10.0361 -9.55286 -1.53355
upperneck -3.61168 -12.8566 0.641384
head 0.644375 -6.52863 -0.0138395
rclavicle -1.11319e-013 -7.95139e-014
rhumerus 65.0752 -20.4853 -53.9656
rradius 20.7322
rwrist 1.85928
rhand -45.7115 26.5113
rfingers 7.12502
rthumb -18.4682 -2.63197
lclavicle -1.11319e-013 -7.95139e-014
lhumerus 0.648082 -56.8558 93.0843
lradius 88.4858
lwrist 99.9026
lhand 29.2258 71.6768
lfingers 7.12502
lthumb 53.0096 -91.1631
rfemur -108.391 -10.592 24.3043
rtibia 48.6272
rfoot -5.66461 -6.06741
rtoes 16.5335
lfemur -73.6232 -4.04729 -5.40781
ltibia 28.3415
lfoot -12.4168 -11.0383
ltoes -16.7899
261
root -0.906306 16.6271 -3.78736 77.7317 29.42 15.16
lowerback 22.4964 3.34512 6.56076
upperback 14.0094 5.72781 8.47898
thorax 2.67628 2.8982 4.3566
lowerneck -9.85546 -9.51958 -1.48365
upperneck -4.00571 -12.8301 0.688664
head 0.488844 -6.51878 0.0178248
rclavicle 6.99722e-014 7.31528e-014
rhumerus 65.342 -20.723 -54.0584
rradius 20.5694
rwrist 2.26517
rhand -46.0701 26.9842
rfingers 7.12502
rthumb -18.8132 -2.12598
lclavicle 6.99722e-014 7.31528e-014
lhumerus 0.776719 -56.9082 92.9552
lradius 88.4358
lwrist 99.9985
lhand 28.8002 71.5487
lfingers 7.12502
lthumb 52.6251 -91.2756
rfemur -108.66 -10.7059 24.4229
rtibia 48.7553
rfoot -5.75241 -6.26303
rtoes 19.3173
lfemur -73.7878 -4.09141 -5.32661
ltibia 28.1601
lfoot -12.2792 -11.0891
ltoes -17.2485
